<svg width="15" height="14" viewBox="0 0 15 14" fill="none" xmlns="http://www.w3.org/2000/svg">
<path d="M6.45967 0.293C6.6472 0.105529 6.90151 0.000213623 7.16667 0.000213623C7.43184 0.000213623 7.68614 0.105529 7.87367 0.293L13.8737 6.293C14.0611 6.48053 14.1665 6.73484 14.1665 7C14.1665 7.26516 14.0611 7.51947 13.8737 7.707L7.87367 13.707C7.68507 13.8892 7.43247 13.99 7.17027 13.9877C6.90807 13.9854 6.65726 13.8802 6.47185 13.6948C6.28645 13.5094 6.18128 13.2586 6.179 12.9964C6.17672 12.7342 6.27751 12.4816 6.45967 12.293L11.7527 7L6.45967 1.707C6.2722 1.51947 6.16689 1.26516 6.16689 1C6.16689 0.734836 6.2722 0.480528 6.45967 0.293ZM0.459672 0.293C0.6472 0.105529 0.901508 0.000213623 1.16667 0.000213623C1.43184 0.000213623 1.68614 0.105529 1.87367 0.293L7.87367 6.293C8.06114 6.48053 8.16646 6.73484 8.16646 7C8.16646 7.26516 8.06114 7.51947 7.87367 7.707L1.87367 13.707C1.68507 13.8892 1.43247 13.99 1.17027 13.9877C0.908074 13.9854 0.657261 13.8802 0.471853 13.6948C0.286445 13.5094 0.181276 13.2586 0.178998 12.9964C0.176719 12.7342 0.277514 12.4816 0.459672 12.293L5.75267 7L0.459672 1.707C0.272201 1.51947 0.166885 1.26516 0.166885 1C0.166885 0.734836 0.272201 0.480528 0.459672 0.293Z" fill="white"/>
</svg>
